<!-- Generated by IcoMoon.io -->
<svg version="1.1" xmlns="http://www.w3.org/2000/svg" width="40" height="32" viewBox="0 0 40 32">
<title>terminal</title>
<path d="M16.124 17.061l-12.146 12.146c-0.586 0.586-1.536 0.586-2.121 0l-1.417-1.417c-0.585-0.585-0.586-1.533-0.003-2.119l9.626-9.672-9.626-9.672c-0.583-0.586-0.582-1.534 0.003-2.119l1.417-1.417c0.586-0.586 1.536-0.586 2.121 0l12.146 12.146c0.586 0.586 0.586 1.536 0 2.121zM40 28.5v-2c0-0.828-0.672-1.5-1.5-1.5h-19c-0.828 0-1.5 0.672-1.5 1.5v2c0 0.828 0.672 1.5 1.5 1.5h19c0.828 0 1.5-0.672 1.5-1.5z"></path>
</svg>
