<!-- Generated by IcoMoon.io -->
<svg version="1.1" xmlns="http://www.w3.org/2000/svg" width="32" height="32" viewBox="0 0 32 32">
<title>envelope</title>
<path d="M29 4h-26c-1.657 0-3 1.343-3 3v18c0 1.657 1.343 3 3 3h26c1.657 0 3-1.343 3-3v-18c0-1.657-1.343-3-3-3zM29 7v2.55c-1.401 1.141-3.636 2.916-8.412 6.656-1.053 0.828-3.138 2.817-4.588 2.794-1.45 0.023-3.536-1.966-4.588-2.794-4.775-3.739-7.010-5.514-8.412-6.656v-2.55h26zM3 25v-11.6c1.432 1.141 3.463 2.741 6.559 5.165 1.366 1.075 3.758 3.449 6.441 3.435 2.67 0.014 5.032-2.325 6.441-3.434 3.096-2.424 5.127-4.025 6.559-5.166v11.6h-26z"></path>
</svg>
