<!-- Generated by IcoMoon.io -->
<svg version="1.1" xmlns="http://www.w3.org/2000/svg" width="32" height="32" viewBox="0 0 32 32">
<title>headphones</title>
<path d="M16 2c-8.842 0-16 7.156-16 16v3c0 0 0 0 0 0 0 0.779 0.445 1.453 1.094 1.784l0.011 0.005 0.899 0.449c0.126 3.756 3.209 6.762 6.995 6.762h1.5c0.828 0 1.5-0.672 1.5-1.5v-11c0-0.828-0.672-1.5-1.5-1.5h-1.5c-1.959 0-3.729 0.805-5 2.102v-0.102c0-6.617 5.383-12 12-12s12 5.383 12 12v0.102c-1.271-1.297-3.041-2.102-5-2.102h-1.5c-0.828 0-1.5 0.672-1.5 1.5v11c0 0.828 0.672 1.5 1.5 1.5h1.5c3.786 0 6.87-3.006 6.995-6.762l0.899-0.449c0.661-0.336 1.106-1.010 1.106-1.789v0-3c0-8.842-7.156-16-16-16z"></path>
</svg>
