<!-- Generated by IcoMoon.io -->
<svg version="1.1" xmlns="http://www.w3.org/2000/svg" width="32" height="32" viewBox="0 0 32 32">
<title>plexamp</title>
<path d="M8.539 5.895c-0 0-0 0-0.001 0-0.184 0-0.333 0.149-0.333 0.333 0 0.073 0.024 0.141 0.064 0.196l-0.001-0.001 6.707 9.243h-11.975c-0.184 0-0.333 0.149-0.333 0.333v0c0 0.184 0.149 0.333 0.333 0.333v0h12.629c0 0 0 0 0.001 0 0.184 0 0.333-0.149 0.333-0.333 0-0.073-0.024-0.141-0.064-0.196l0.001 0.001-6.707-9.243h1.893l6.848 9.439-6.948 9.577c-0.040 0.054-0.063 0.122-0.063 0.195 0 0.184 0.149 0.333 0.333 0.333h2.716c0.111-0 0.208-0.054 0.269-0.137l0.001-0.001 7.091-9.772c0.040-0.054 0.063-0.122 0.063-0.195s-0.024-0.141-0.064-0.196l0.001 0.001-6.707-9.243h1.893l6.849 9.439-6.949 9.577c-0.040 0.054-0.063 0.122-0.063 0.195 0 0.184 0.149 0.333 0.333 0.333h2.717c0.11-0 0.208-0.054 0.269-0.137l0.001-0.001 6.991-9.634h2.335c0.184 0 0.333-0.149 0.333-0.333v0c0-0.184-0.149-0.333-0.333-0.333v0h-2.505c-0.11 0-0.208 0.054-0.269 0.137l-0.001 0.001-6.991 9.634h-1.892l6.706-9.243c0.040-0.054 0.063-0.122 0.063-0.195s-0.024-0.141-0.064-0.196l0.001 0.001-7.090-9.772c-0.061-0.084-0.159-0.138-0.27-0.138-0 0-0 0-0.001 0h-2.716c-0.184 0-0.333 0.149-0.333 0.333 0 0.073 0.024 0.141 0.064 0.196l-0.001-0.001 6.949 9.577-6.85 9.439h-1.892l6.707-9.243c0.040-0.054 0.063-0.122 0.063-0.195s-0.024-0.141-0.064-0.196l0.001 0.001-7.091-9.772c-0.061-0.084-0.159-0.138-0.27-0.138h-0z"></path>
</svg>
