<!-- Generated by IcoMoon.io -->
<svg version="1.1" xmlns="http://www.w3.org/2000/svg" width="40" height="32" viewBox="0 0 40 32">
<title>user-lock</title>
<path d="M14 16c4.418 0 8-3.582 8-8s-3.582-8-8-8c-4.418 0-8 3.582-8 8v0c0 4.418 3.582 8 8 8v0zM20 20c0.005-0.701 0.192-1.358 0.516-1.926l-0.010 0.019c-0.3-0.031-0.594-0.094-0.906-0.094h-1.044c-1.337 0.631-2.903 1-4.556 1s-3.22-0.369-4.623-1.028l0.067 0.028h-1.044c-4.639 0.001-8.399 3.761-8.4 8.4v2.6c0 1.657 1.343 3 3 3v0h17.556c-0.345-0.572-0.551-1.261-0.556-1.999v-0.001zM38 18h-2v-5c0-2.761-2.239-5-5-5s-5 2.239-5 5v0 5h-2c-1.105 0-2 0.895-2 2v0 10c0 1.105 0.895 2 2 2v0h14c1.105 0 2-0.895 2-2v0-10c0-1.105-0.895-2-2-2v0zM31 27c-1.105 0-2-0.895-2-2s0.895-2 2-2c1.105 0 2 0.895 2 2v0c0 1.105-0.895 2-2 2v0zM33 18h-4v-5c0-1.105 0.895-2 2-2s2 0.895 2 2v0z"></path>
</svg>
